<svg version="1.1" id="Layer_1" xmlns="http://www.w3.org/2000/svg" xmlns:xlink="http://www.w3.org/1999/xlink" x="0px" y="0px"
	 width="100%" viewBox="0 0 1024 1024" enable-background="new 0 0 1024 1024" xml:space="preserve">
<path fill="#000000" opacity="1.000000" stroke="none" 
	d="
M656.824890,258.624451 
	C664.502441,256.175507 671.972900,254.602509 679.491699,253.182129 
	C682.725159,252.571289 685.749695,252.765869 687.501770,255.624832 
	C689.278748,258.524384 688.709778,261.661011 686.612976,264.470581 
	C680.840332,272.205597 674.727478,279.671051 669.768311,288.021271 
	C659.323059,305.609039 653.350769,324.640472 650.310364,344.755707 
	C646.853516,367.625366 648.738342,390.626251 648.382629,413.567657 
	C647.704102,457.333801 634.084656,495.979248 602.902161,527.360657 
	C581.920349,548.476318 556.322815,561.911255 527.871338,570.451843 
	C516.696655,573.806152 506.310577,573.888550 495.291779,569.922791 
	C471.241089,561.266907 448.817444,550.005310 429.638428,532.798645 
	C403.896912,509.704437 388.802643,480.745667 381.608032,447.216675 
	C377.199768,426.672852 377.371765,405.900848 377.754669,385.111816 
	C378.179596,362.041504 376.838501,339.198120 369.824677,317.041321 
	C364.336060,299.702545 355.566864,284.084442 344.110809,269.969299 
	C342.746277,268.287994 341.319489,266.651581 340.043945,264.904999 
	C337.868347,261.926117 336.459686,258.649292 338.802795,255.224045 
	C340.949768,252.085510 344.173523,252.707367 347.408844,253.333679 
	C409.625153,265.377838 457.948639,298.274231 493.431732,350.486237 
	C499.430756,359.313538 504.655792,368.598755 509.739319,377.968811 
	C510.602203,379.559326 511.332703,381.270416 514.191162,382.644226 
	C544.852295,322.246857 591.150085,279.452820 656.824890,258.624451 
M430.438995,322.083984 
	C418.440125,312.131165 405.709229,303.348572 390.634125,296.502045 
	C391.351654,298.809875 391.647095,300.100983 392.144318,301.309113 
	C402.795776,327.189362 405.478302,354.346893 405.042725,381.990875 
	C404.937866,388.647247 404.628632,395.303009 404.274170,401.951660 
	C404.113495,404.965393 405.066498,406.413635 408.294434,406.910889 
	C419.643463,408.659302 430.955719,410.843475 441.607330,415.243073 
	C475.048950,429.056000 499.176575,451.871887 510.181641,487.146118 
	C510.751709,488.973358 510.802399,491.041107 512.410706,492.537109 
	C513.798706,491.066223 514.333557,489.358337 514.928894,487.613617 
	C524.734558,458.875977 543.356018,437.512604 569.636169,422.674591 
	C584.298523,414.396149 600.223816,409.697144 616.739258,406.960388 
	C620.507202,406.335999 621.839294,404.555481 621.763672,400.964569 
	C621.616211,393.968414 621.875122,386.957336 621.543152,379.972504 
	C620.279907,353.393219 623.435242,327.537323 633.542725,302.733307 
	C634.111755,301.336731 635.495850,299.866974 633.904541,297.986359 
	C633.170837,298.201569 632.323853,298.301147 631.624878,298.676300 
	C596.323242,317.622894 567.872009,343.728394 547.864685,378.705292 
	C538.815002,394.526001 531.944031,411.277496 525.999268,428.456146 
	C523.771667,434.893494 519.266724,438.209503 513.088562,438.341583 
	C506.856628,438.474792 503.225708,435.854614 500.427399,429.045166 
	C499.099670,425.814270 497.919342,422.522064 496.703033,419.246185 
	C482.731445,381.616516 462.854736,348.000610 430.438995,322.083984 
M453.949799,453.593811 
	C439.611328,443.439941 423.818695,436.542084 405.747040,431.319458 
	C410.061249,459.893372 419.853912,484.439545 438.703552,504.944855 
	C456.018402,523.780640 477.628052,535.311096 501.727661,542.705750 
	C502.995239,540.228943 502.532043,538.636169 502.220032,536.997498 
	C500.819580,529.642395 498.920013,522.420898 496.695953,515.274414 
	C488.981323,490.484924 476.581696,468.931305 453.949799,453.593811 
M523.379272,539.484375 
	C523.141602,541.884277 524.077942,542.838379 526.578003,542.419922 
	C530.390930,541.781860 532.056702,539.149475 533.358704,535.903076 
	C541.625427,515.291565 551.956726,495.802368 564.966125,477.757812 
	C569.973022,470.813019 574.772217,463.718506 579.857727,456.416901 
	C577.145386,455.876617 575.812683,457.339111 574.365479,458.282104 
	C562.650879,465.915192 553.005859,475.685699 544.901245,487.029205 
	C533.771423,502.606781 527.759216,520.306091 523.379272,539.484375 
z"/>
<path fill="#000000" opacity="1.000000" stroke="none" 
	d="
M389.659668,723.000854 
	C393.406036,722.776978 396.736877,722.599731 400.064087,722.651611 
	C405.409027,722.734985 406.038025,723.470825 404.541229,728.540955 
	C400.348541,742.743103 396.023712,756.906189 391.738464,771.080933 
	C388.609344,781.431580 385.294830,791.730225 382.400879,802.145935 
	C381.225098,806.377869 378.975464,808.117249 374.674652,808.268005 
	C362.597076,808.691650 362.611328,808.788391 359.046356,797.411194 
	C354.271393,782.172363 349.477814,766.939392 344.261963,750.334045 
	C341.032990,760.186646 338.180786,768.756775 335.418549,777.355774 
	C332.721771,785.751099 329.923767,794.121887 327.551819,802.610107 
	C326.334137,806.967529 323.883911,808.300598 319.593567,808.295654 
	C307.706177,808.281921 307.588776,808.451782 304.042542,796.948730 
	C297.033325,774.212646 290.150604,751.437439 283.255676,728.666321 
	C281.731812,723.633606 282.394287,722.659912 287.569946,722.635864 
	C302.047363,722.568665 299.480591,721.648682 303.095947,733.900269 
	C307.284912,748.095642 311.223114,762.365051 315.293396,776.595581 
	C315.925171,778.804443 316.680725,780.977905 317.750916,784.333923 
	C321.234772,773.113892 324.426819,763.004944 327.506561,752.861755 
	C330.019806,744.584595 332.496918,736.293640 334.792755,727.954468 
	C335.813171,724.247986 337.538940,722.016907 341.745697,722.613892 
	C343.049500,722.798889 344.415558,722.692139 345.738739,722.566956 
	C350.098236,722.154602 352.229156,724.001160 353.475739,728.346863 
	C358.336670,745.292542 363.595093,762.124146 368.718994,778.994141 
	C369.052185,780.091003 369.497345,781.153870 370.125153,782.876648 
	C372.593933,778.912476 373.297943,774.871582 374.412140,771.062256 
	C378.660553,756.537537 382.686218,741.947754 386.849152,727.397705 
	C387.296661,725.833496 387.660736,724.121338 389.659668,723.000854 
z"/>
<path fill="#000000" opacity="1.000000" stroke="none" 
	d="
M681.232422,695.289551 
	C677.105957,694.744141 677.677063,691.899109 677.669861,689.481079 
	C677.631836,676.824219 677.649231,664.167236 677.647522,651.510254 
	C677.647156,648.526855 677.647461,645.543518 676.652039,642.204468 
	C671.219971,651.125916 665.790466,660.048889 660.354553,668.967957 
	C658.535461,671.952698 656.798462,674.993652 654.849365,677.891479 
	C651.790283,682.439331 648.658020,682.558899 645.634033,677.850525 
	C639.248657,667.908386 633.156616,657.777588 626.970276,647.708252 
	C626.190979,646.439697 625.624451,645.026917 624.039978,644.324463 
	C622.727478,645.930359 623.310852,647.815735 623.305786,649.545715 
	C623.266541,662.868652 623.186462,676.193420 623.371826,689.513977 
	C623.432617,693.888123 621.695374,695.428772 617.458679,695.363525 
	C603.802063,695.153015 605.718384,696.659668 605.669006,683.721069 
	C605.583862,661.410461 605.816162,639.098572 605.010925,616.793518 
	C604.781433,610.435364 605.422424,610.526978 611.725952,609.855591 
	C620.240417,608.948730 625.220520,612.369507 629.081970,619.834290 
	C634.504517,630.316589 640.920593,640.286255 646.957458,650.447937 
	C647.865967,651.977173 648.452881,653.803162 650.706421,655.006470 
	C654.666260,648.297852 658.635681,641.628418 662.549561,634.926453 
	C666.494690,628.171082 670.321228,621.345825 674.321899,614.623901 
	C676.806396,610.449341 689.343445,608.023315 693.315125,610.793457 
	C694.890259,611.892029 695.078003,613.535767 695.081726,615.225159 
	C695.137390,640.372131 695.170105,665.519165 695.235291,690.666138 
	C695.243347,693.773254 693.783813,695.288879 690.699158,695.291748 
	C687.701538,695.294617 684.703857,695.303772 681.232422,695.289551 
z"/>
<path fill="#000000" opacity="1.000000" stroke="none" 
	d="
M536.831543,234.148361 
	C548.638306,247.396622 550.967529,263.984619 543.417358,278.786865 
	C536.220886,292.895782 522.725098,299.195923 511.085815,298.031464 
	C495.678772,296.490112 483.339294,285.523834 479.802032,271.232269 
	C474.260254,248.842041 486.571136,229.065826 508.961304,225.152054 
	C519.428650,223.322388 528.569702,227.178696 536.831543,234.148361 
z"/>
<path fill="#000000" opacity="1.000000" stroke="none" 
	d="
M516.434326,688.298340 
	C513.717896,694.547485 504.884369,697.814819 498.858643,695.063293 
	C496.012360,693.763672 497.557434,691.670959 498.227448,689.974243 
	C502.929382,678.067932 507.729675,666.200562 512.481628,654.313904 
	C517.727600,641.191650 523.064880,628.104126 528.122437,614.909485 
	C529.569519,611.134033 531.498291,609.434265 535.763611,609.555725 
	C549.309082,609.941467 546.305603,608.196899 551.222351,620.242981 
	C560.457031,642.868225 569.644531,665.512756 578.875854,688.139404 
	C581.530579,694.646423 581.151672,695.291992 574.336853,695.326416 
	C563.612305,695.380676 563.613586,695.380127 559.840393,685.596069 
	C559.242126,684.044556 558.470764,682.540649 558.050232,680.943359 
	C557.087524,677.287170 554.843994,675.989685 551.095459,676.089600 
	C543.279968,676.297852 535.434082,676.500916 527.641541,676.030396 
	C522.525635,675.721497 519.903015,677.621521 518.685730,682.342712 
	C518.191162,684.260986 517.280762,686.072083 516.434326,688.298340 
M540.673523,636.085083 
	C538.131470,632.924072 537.051758,635.483826 536.211182,637.407410 
	C534.020874,642.419800 531.937073,647.485535 530.027405,652.610718 
	C529.146790,654.974304 527.566528,657.308105 528.489380,660.424133 
	C535.458496,660.424133 542.289795,660.424133 549.809326,660.424133 
	C547.585571,651.787109 543.889587,644.389954 540.673523,636.085083 
z"/>
<path fill="#000000" opacity="1.000000" stroke="none" 
	d="
M443.103699,625.247437 
	C440.790131,625.264893 438.959381,625.301941 437.128510,625.313904 
	C434.334869,625.332214 432.972321,626.875854 433.600555,629.460815 
	C434.484436,633.097534 434.270142,636.753662 434.232605,640.383423 
	C434.196289,643.892761 435.634796,645.106873 438.994354,645.048340 
	C446.150146,644.923523 453.312134,645.119141 460.466339,644.954773 
	C464.539581,644.861145 466.498718,646.023071 466.431702,650.606873 
	C466.292511,660.125793 466.517120,660.132751 456.943726,660.142883 
	C450.951050,660.149231 444.956024,660.243652 438.966675,660.102112 
	C435.638672,660.023499 434.005615,661.080383 434.257629,664.689209 
	C434.500610,668.168884 434.497498,671.686096 434.303253,675.170166 
	C434.109711,678.642944 435.449799,679.863281 438.935425,679.795654 
	C448.087433,679.617981 457.245422,679.696350 466.400543,679.752502 
	C472.967773,679.792786 473.308533,680.264526 473.290009,688.109070 
	C473.274200,694.801086 472.838898,695.299011 466.304871,695.313538 
	C451.989105,695.345276 437.671478,695.199585 423.358276,695.395081 
	C418.818665,695.457092 417.073059,693.727905 417.061188,689.284424 
	C416.994476,664.316101 416.840759,639.347900 416.615845,614.380493 
	C416.586853,611.161438 417.842285,609.829163 420.987366,609.834717 
	C436.301453,609.861816 451.615723,609.857727 466.929718,609.805298 
	C470.068268,609.794556 471.389526,611.097534 471.372864,614.306335 
	C471.305206,627.349060 472.191406,625.186157 461.064819,625.307068 
	C455.239563,625.370422 449.412628,625.277832 443.103699,625.247437 
z"/>
<path fill="#000000" opacity="1.000000" stroke="none" 
	d="
M463.019958,737.373901 
	C449.322876,737.362915 449.322876,737.362915 449.347351,750.478271 
	C449.360687,757.627747 449.360687,757.628723 456.450989,757.635376 
	C463.279419,757.641785 470.109528,757.737854 476.935486,757.610535 
	C480.136169,757.550842 481.250916,758.806519 481.380157,762.001099 
	C481.795349,772.263184 481.905731,772.260498 471.685577,772.292908 
	C465.689941,772.311951 459.693237,772.396118 453.699066,772.310547 
	C450.495056,772.264771 449.149689,773.618408 449.326233,776.817932 
	C449.472839,779.474426 449.348450,782.145752 449.349457,784.810486 
	C449.352539,792.998413 449.362823,793.120850 457.779999,792.481689 
	C466.443207,791.823792 475.072388,792.128967 483.728607,792.565063 
	C487.160583,792.737976 488.311523,793.958801 488.395691,797.352356 
	C488.661804,808.084961 488.775299,808.055176 477.920441,808.050476 
	C464.763702,808.044800 451.606964,808.086975 438.450226,808.115784 
	C432.562317,808.128662 431.711761,807.386719 431.703491,801.618835 
	C431.668671,777.302917 431.760712,752.986389 431.599915,728.671509 
	C431.570129,724.162415 432.976562,722.492493 437.627777,722.566833 
	C452.280243,722.801086 466.941803,722.825562 481.593262,722.563049 
	C486.574402,722.473816 487.419342,724.728577 487.312592,728.941101 
	C487.117584,736.634216 486.853790,737.312805 481.503174,737.366333 
	C475.508026,737.426392 469.511780,737.376221 463.019958,737.373901 
z"/>
<path fill="#000000" opacity="1.000000" stroke="none" 
	d="
M684.046997,727.948120 
	C690.394531,738.121765 696.538269,747.989075 702.807129,758.057251 
	C705.180481,756.842712 705.848022,754.698547 706.900452,752.919983 
	C711.816223,744.612366 716.789856,736.335693 721.512695,727.918823 
	C723.643066,724.122192 726.549744,722.293274 730.834595,722.665222 
	C734.713928,723.001953 738.752319,721.752625 742.440063,723.543274 
	C743.226501,725.923157 741.631531,727.220337 740.696350,728.678101 
	C731.978210,742.267090 723.263733,755.859192 714.417053,769.364441 
	C712.875122,771.718323 712.154541,774.060425 712.189148,776.827576 
	C712.293213,785.152100 712.106934,793.483765 712.377197,801.801392 
	C712.522217,806.267639 710.859131,808.091919 706.385559,808.275696 
	C694.690552,808.756226 693.815247,808.769470 694.870728,797.333862 
	C696.424927,780.494995 692.139709,766.148682 681.431885,753.078735 
	C675.239929,745.520752 670.399841,736.850769 665.019714,728.636353 
	C664.064270,727.177490 662.584412,725.803406 663.186218,723.738647 
	C671.515808,720.730347 680.133423,722.372070 684.046997,727.948120 
z"/>
<path fill="#000000" opacity="1.000000" stroke="none" 
	d="
M366.292084,647.000244 
	C366.300995,661.489258 366.204956,675.479675 366.382324,689.466614 
	C366.436371,693.730713 364.990021,695.446777 360.608032,695.377930 
	C346.770203,695.160461 348.738159,696.461731 348.673218,683.815796 
	C348.585175,666.663025 348.659515,649.509338 348.643982,632.356079 
	C348.638306,626.086060 348.585632,626.059326 342.145447,626.074402 
	C337.482788,626.085327 332.820099,626.120178 328.157532,626.106628 
	C325.128876,626.097778 323.650208,624.700073 323.664093,621.501526 
	C323.723694,607.766663 322.510040,610.063110 334.411835,609.986755 
	C351.064880,609.879883 367.720398,610.038513 384.371307,609.815796 
	C388.846588,609.755859 390.526947,611.023315 390.428680,615.737854 
	C390.214050,626.034119 390.450439,626.039062 380.103333,626.113159 
	C366.312744,626.211914 366.312836,626.211914 366.300354,640.005127 
	C366.298401,642.170166 366.294952,644.335205 366.292084,647.000244 
z"/>
<path fill="#000000" opacity="1.000000" stroke="none" 
	d="
M637.995605,808.044128 
	C627.511841,808.109680 617.525269,808.088623 607.542969,808.284790 
	C603.439148,808.365417 601.480530,807.066895 601.495667,802.579041 
	C601.580994,777.277832 601.488953,751.975769 601.383484,726.674316 
	C601.372131,723.937988 602.383667,722.672607 605.139587,722.660339 
	C621.020020,722.589600 618.988037,720.961792 619.089905,735.271973 
	C619.211914,752.414978 619.419250,769.561157 619.191162,786.700623 
	C619.124573,791.702332 620.887817,792.934692 625.530701,792.748474 
	C633.508484,792.428406 641.513550,792.833801 649.497375,792.599304 
	C653.762695,792.474182 655.803650,793.892639 655.340088,798.307251 
	C655.219116,799.459534 655.218201,800.648621 655.350830,801.799072 
	C655.909058,806.643127 653.664246,808.471375 648.979065,808.170105 
	C645.495972,807.945984 641.990173,808.073914 637.995605,808.044128 
z"/>
<path fill="#000000" opacity="1.000000" stroke="none" 
	d="
M570.590759,807.959961 
	C555.965942,808.046204 541.802368,808.097839 527.638794,808.127258 
	C521.120911,808.140808 520.680237,807.736084 520.613708,801.503418 
	C520.350403,776.844543 521.102600,752.179993 520.202881,727.524780 
	C520.087524,724.363037 521.099182,722.701416 524.722107,722.546082 
	C538.039062,721.975281 538.016907,721.905884 538.006348,735.324951 
	C537.992676,752.643860 538.188904,769.963623 538.072449,787.281433 
	C538.044922,791.384033 539.374268,792.882690 543.534851,792.734802 
	C551.025024,792.468689 558.531250,792.639771 566.030762,792.653748 
	C574.369019,792.669373 574.409790,792.682129 574.329346,801.243835 
	C574.304138,803.925171 575.257751,807.228760 570.590759,807.959961 
z"/>
</svg>